<svg xmlns="http://www.w3.org/2000/svg" width="1000" height="610" viewBox="0 0 1000 610" role="img" aria-labelledby="title desc">
<title id="title">CentOS Stream 9 VM 설정 · 자동화 흐름</title><desc id="desc">Setup 모드에서는 start.sh가 OS와 권한을 검사하고 현재 환경을 감지한 뒤 dialog TUI 선택값을 generated_vars/env.yml에 저장한다. playbook의 Role은 preflight 후 변경 전 backup을 만들고 선택된 기능 Task를 적용한다. Restore 모드는 별도 restore.yml을 통해 선택한 backup을 복구한다.</desc>
<defs><marker id="arrow" markerWidth="8" markerHeight="8" refX="7" refY="4" orient="auto"><path d="M0 0 L8 4 L0 8Z" fill="#64748b"/></marker></defs>
<rect width="1000" height="610" rx="16" fill="#f8fafc"/>
<g font-family="Arial,'Noto Sans CJK KR','Malgun Gothic',sans-serif">
<text x="32" y="44" font-size="27" font-weight="700" fill="#17253b">CentOS Stream 9 VM 설정 · 자동화 흐름</text>
<text x="32" y="74" font-size="16" fill="#4b5e78">Setup · 환경 감지 · TUI · Ansible Role · Backup / Restore</text>

<rect x="32" y="104" width="936" height="112" rx="12" fill="#edf2ff" stroke="#b8c7e3"/>
<text x="52" y="136" font-size="17" font-weight="700" fill="#4865a0">01  Setup 입력</text>
<rect x="150" y="129" width="190" height="64" rx="10" fill="#fff" stroke="#cbd5e1"/>
<text x="168" y="156" font-size="16" font-weight="700" fill="#163b76">실행 환경 검사</text><text x="168" y="180" font-size="13" fill="#263a54">CentOS 9 · root · TTY</text>
<rect x="405" y="129" width="190" height="64" rx="10" fill="#fff" stroke="#cbd5e1"/>
<text x="423" y="156" font-size="16" font-weight="700" fill="#163b76">현재 환경 감지</text><text x="423" y="180" font-size="13" fill="#263a54">Hostname · NIC · IP · DNS</text>
<rect x="660" y="129" width="190" height="64" rx="10" fill="#fff" stroke="#cbd5e1"/>
<text x="678" y="156" font-size="16" font-weight="700" fill="#163b76">dialog TUI</text><text x="678" y="180" font-size="13" fill="#263a54">적용 항목 · 값 선택</text>
<path d="M340 161 H395" fill="none" stroke="#64748b" stroke-width="2" marker-end="url(#arrow)"/>
<path d="M595 161 H650" fill="none" stroke="#64748b" stroke-width="2" marker-end="url(#arrow)"/>

<path d="M755 193 V235 H248 V265" fill="none" stroke="#64748b" stroke-width="2" marker-end="url(#arrow)"/>

<rect x="32" y="241" width="936" height="180" rx="12" fill="#fff" stroke="#b8c7e3"/>
<text x="52" y="273" font-size="17" font-weight="700" fill="#4865a0">02  Ansible 적용</text>
<rect x="145" y="265" width="205" height="68" rx="10" fill="#f5f8ff" stroke="#cbd5e1"/>
<text x="163" y="292" font-size="16" font-weight="700" fill="#163b76">generated_vars/env.yml</text><text x="163" y="316" font-size="13" fill="#263a54">선택값 저장 · 0600</text>
<rect x="397" y="265" width="180" height="68" rx="10" fill="#f5f8ff" stroke="#cbd5e1"/>
<text x="415" y="292" font-size="16" font-weight="700" fill="#163b76">playbook.yml</text><text x="415" y="316" font-size="13" fill="#263a54">localhost · Role 실행</text>
<rect x="624" y="265" width="205" height="68" rx="10" fill="#f5f8ff" stroke="#cbd5e1"/>
<text x="642" y="292" font-size="16" font-weight="700" fill="#163b76">Role Preflight</text><text x="642" y="316" font-size="13" fill="#263a54">적용 전 조건 확인</text>
<path d="M350 299 H387" fill="none" stroke="#64748b" stroke-width="2" marker-end="url(#arrow)"/>
<path d="M577 299 H614" fill="none" stroke="#64748b" stroke-width="2" marker-end="url(#arrow)"/>

<rect x="250" y="349" width="215" height="52" rx="10" fill="#fff6ea" stroke="#e5cba9"/>
<text x="268" y="380" font-size="16" font-weight="700" fill="#946018">변경 전 Backup 캡처</text>
<rect x="535" y="349" width="265" height="52" rx="10" fill="#ecf8f4" stroke="#a9d5c6"/>
<text x="553" y="380" font-size="16" font-weight="700" fill="#086b62">선택한 기능별 Task 순차 적용</text>
<path d="M726 333 V341 H357 V349" fill="none" stroke="#64748b" stroke-width="2" marker-end="url(#arrow)"/>
<path d="M465 375 H535" fill="none" stroke="#64748b" stroke-width="2" marker-end="url(#arrow)"/>

<rect x="32" y="437" width="936" height="137" rx="12" fill="#ecf8f4" stroke="#a9d5c6"/>
<text x="52" y="469" font-size="17" font-weight="700" fill="#086b62">03  Restore 경로</text>
<rect x="145" y="484" width="210" height="64" rx="10" fill="#fff" stroke="#cbd5e1"/>
<text x="163" y="511" font-size="16" font-weight="700" fill="#086b62">start.sh --restore</text><text x="163" y="535" font-size="13" fill="#263a54">Backup 선택</text>
<rect x="405" y="484" width="190" height="64" rx="10" fill="#fff" stroke="#cbd5e1"/>
<text x="423" y="511" font-size="16" font-weight="700" fill="#086b62">restore.yml</text><text x="423" y="535" font-size="13" fill="#263a54">Role tasks_from: restore</text>
<rect x="645" y="484" width="210" height="64" rx="10" fill="#fff" stroke="#cbd5e1"/>
<text x="663" y="511" font-size="16" font-weight="700" fill="#086b62">선택 Backup 복구</text><text x="663" y="535" font-size="13" fill="#263a54">파일 · 서비스 상태 복원</text>
<path d="M355 516 H395" fill="none" stroke="#64748b" stroke-width="2" marker-end="url(#arrow)"/>
<path d="M595 516 H635" fill="none" stroke="#64748b" stroke-width="2" marker-end="url(#arrow)"/>
</g></svg>